# xmcd CD database file
#
# Track frame offsets:
#	150
#	9647
#	19812
#	27590
#	39372
#	44755
#	55555
#	69835
#	81997
#	96400
#	116110
#	123717
#	138425
#	152207
#
# Disc length: 2259 seconds
#
# Revision: 0
# Processed by: cddbd v1.5.2PL0 Copyright (c) Steve Scherf et al.
# Submitted via: CDex 1.70beta2
#
DISCID=c208d10e
DTITLE=Jo Bohnsack - Westwind Boogie
DYEAR=1996
DGENRE=Blues
TTITLE0=Black Magic Woman
TTITLE1=Selli
TTITLE2=Westwind Boogie
TTITLE3=The Sky Is Crying
TTITLE4=Royal Street
TTITLE5=Old Folks Boogie
TTITLE6=Whiskey Street Blues (Boogie On ...)
TTITLE7=Complicated
TTITLE8=Sun Is Going Down
TTITLE9=Killing Floor
TTITLE10=Big Wave
TTITLE11=Gimme No Loving
TTITLE12=Hey Brother
TTITLE13=Hey Joe
EXTD=YEAR: 1996
EXTT0=
EXTT1=
EXTT2=
EXTT3=
EXTT4=
EXTT5=
EXTT6=
EXTT7=
EXTT8=
EXTT9=
EXTT10=
EXTT11=
EXTT12=
EXTT13=
PLAYORDER=
